<?xml version="1.0" encoding="UTF-8" standalone="no"?>
<!-- Created with Inkscape (http://www.inkscape.org/) -->

<svg
   xmlns:dc="http://purl.org/dc/elements/1.1/"
   xmlns:cc="http://creativecommons.org/ns#"
   xmlns:rdf="http://www.w3.org/1999/02/22-rdf-syntax-ns#"
   xmlns:svg="http://www.w3.org/2000/svg"
   xmlns="http://www.w3.org/2000/svg"
   xmlns:sodipodi="http://sodipodi.sourceforge.net/DTD/sodipodi-0.dtd"
   xmlns:inkscape="http://www.inkscape.org/namespaces/inkscape"
   width="1024"
   height="1024"
   viewBox="0 0 270.93333 270.93334"
   version="1.1"
   id="svg8"
   inkscape:version="0.92.5 (2060ec1f9f, 2020-04-08)"
   sodipodi:docname="kettle.svg"
   inkscape:export-filename="/home/volgy/git/volgy/heatsim/kettle.png"
   inkscape:export-xdpi="96"
   inkscape:export-ydpi="96"
   shape-rendering="crispEdges">
  <defs
     id="defs2" />
  <sodipodi:namedview
     id="base"
     pagecolor="#ffffff"
     bordercolor="#666666"
     borderopacity="1.0"
     inkscape:pageopacity="0.0"
     inkscape:pageshadow="2"
     inkscape:zoom="0.7773642"
     inkscape:cx="728.9007"
     inkscape:cy="74.631753"
     inkscape:document-units="px"
     inkscape:current-layer="layer1"
     showgrid="false"
     units="px"
     inkscape:snap-global="false"
     inkscape:window-width="1920"
     inkscape:window-height="1043"
     inkscape:window-x="1920"
     inkscape:window-y="0"
     inkscape:window-maximized="1" />
  <metadata
     id="metadata5">
    <rdf:RDF>
      <cc:Work
         rdf:about="">
        <dc:format>image/svg+xml</dc:format>
        <dc:type
           rdf:resource="http://purl.org/dc/dcmitype/StillImage" />
        <dc:title></dc:title>
      </cc:Work>
    </rdf:RDF>
  </metadata>
  <g
     inkscape:label="Layer 1"
     inkscape:groupmode="layer"
     id="layer1"
     transform="translate(0,-26.06665)">
    <rect
       style="fill:#000000;fill-opacity:1;stroke-width:0.26322466"
       id="rect4580"
       width="270.93335"
       height="270.93335"
       x="0"
       y="26.06665"
       inkscape:export-xdpi="96"
       inkscape:export-ydpi="96" />
    <path
       inkscape:connector-curvature="0"
       id="path3754"
       d="m 78.238638,288.30221 c -0.128456,-0.15623 -0.512756,-1.42065 -0.853982,-2.80981 -0.708768,-2.88542 -1.43646,-4.14184 -4.403492,-7.60293 -2.345284,-2.73582 -3.932388,-4.98523 -5.799304,-8.21939 -1.969519,-3.41191 -2.50221,-4.19064 -4.482958,-6.55347 -2.781978,-3.31863 -4.638635,-6.5967 -6.903547,-12.18872 -2.161491,-5.33667 -3.698862,-10.3325 -7.679518,-24.95532 -4.259153,-15.64582 -7.868544,-25.6729 -11.106216,-30.85362 -1.269964,-2.0321 -1.843031,-2.5551 -5.589489,-5.10109 -1.741005,-1.18313 -3.262595,-2.30882 -3.38132,-2.5015 -0.613933,-0.9965 0.816612,-2.74709 2.734564,-3.34634 1.828047,-0.57117 3.995694,-0.76799 10.30536,-0.93571 l 5.833466,-0.15507 2.316984,2.53742 c 2.865367,3.138 5.119589,6.00175 9.291581,11.80398 3.965504,5.51505 6.059955,8.13083 8.351259,10.42994 1.756801,1.76277 2.992863,2.58804 3.553853,2.37278 0.163943,-0.0629 0.623667,-0.67138 1.021631,-1.35215 0.719459,-1.23077 1.306098,-2.46595 4.760312,-10.02298 4.884145,-10.68538 7.551752,-15.17935 9.57497,-16.13038 1.369582,-0.64377 4.822904,-1.44819 8.978839,-2.09155 9.271399,-1.43523 16.732029,-1.74463 38.299739,-1.58837 22.65274,0.16412 33.11326,0.74482 40.64371,2.25626 5.39907,1.08365 6.82929,2.0459 8.98698,6.04644 1.75074,3.24602 0.90495,2.92973 6.746,2.5228 16.02521,-1.11643 28.33074,-0.9064 37.54994,0.64092 4.125,0.69233 6.89858,1.60385 8.92019,2.93158 3.38618,2.22393 5.43762,5.25486 6.71065,9.91472 0.60483,2.21395 0.54436,9.00644 -0.10626,11.93812 -1.61594,7.28129 -5.73982,15.40589 -10.71816,21.11626 -5.32902,6.11257 -17.02058,17.23826 -26.35252,25.07703 -5.06232,4.25231 -7.06413,6.37364 -8.82257,9.34941 -1.73419,2.93472 -3.41512,5.18114 -5.94762,7.94852 -2.54032,2.77594 -3.28344,4.1378 -3.55444,6.51391 -0.23013,2.01774 -0.56843,2.69858 -1.46671,2.95173 -0.33955,0.0957 -24.59358,0.21148 -53.89785,0.25732 -43.388727,0.0679 -53.323835,0.0306 -53.514051,-0.20074 z M 204.15393,250.22587 c 3.31412,-1.99267 9.65517,-7.19453 13.61192,-11.16651 8.75944,-8.79315 16.76196,-21.8859 17.36895,-28.41696 0.55845,-6.00861 -3.95688,-10.61207 -11.77614,-12.00602 -2.81262,-0.5014 -10.35393,-0.69806 -13.63502,-0.35557 -5.50863,0.57501 -10.4112,2.11587 -16.37464,5.14647 -2.6051,1.3239 -2.5105,0.93812 -1.0618,4.32994 2.6285,6.15407 4.90502,12.53104 7.01234,19.64295 1.9674,6.63969 2.59554,10.4773 2.85797,17.46062 0.15934,4.24004 0.32435,6.14965 0.5314,6.14965 0.088,0 0.74735,-0.35306 1.46502,-0.78457 z"
       style="fill:#c0c0c0;fill-opacity:1;stroke:none;stroke-width:0.21963035;stroke-opacity:1"
       sodipodi:nodetypes="cccscsssccssccsccsssssscsscssssccscscsssscssscss" />
    <rect
       id="rect3773"
       width="165.10001"
       height="8.4666672"
       x="52.916668"
       y="288.53333"
       style="fill:#808080;fill-opacity:1;stroke:none;stroke-width:0.30652368;stroke-opacity:1" />
  </g>
</svg>
